<mxfile host="app.diagrams.net" modified="2024-04-03T19:30:11.822Z" agent="Mozilla/5.0 (Windows NT 10.0; Win64; x64) AppleWebKit/537.36 (KHTML, like Gecko) Chrome/123.0.0.0 Safari/537.36" version="24.2.2" etag="T8l5DDZFHpSmHyEJ3UBn" type="github">
  <diagram name="PÃ¡gina-1" id="NHgn_26Gra0R1BGyqPpB">
    <mxGraphModel>
      <root>
        <mxCell id="0" />
        <mxCell id="1" parent="0" />
      </root>
    </mxGraphModel>
  </diagram>
</mxfile>
